<svg xmlns="http://www.w3.org/2000/svg" viewBox="0 0 110 24" xmlns:v="https://vecta.io/nano"><g fill="#0d0c22"><path d="M15.1,7.3h0,0Z"/><path d="M15.1 7.3h0 0zM12 21.5h0zm-.4.8h0z"/></g><path d="M8.9 11.1c-.9.4-1.8.8-3.1.8s-1.1 0-1.6-.2l.9 9c0 .4.2.7.5 1s.6.4 1 .4h1.7 1.8c.4 0 .7-.1 1-.4s.5-.6.5-1l.9-10c-.4-.1-.8-.2-1.3-.2-.8 0-1.5.3-2.3.6h0z" fill="#fd0"/><path d="M16.5 6.4v-.7c-.3-.6-.5-1.2-1.1-1.4-.2 0-.4-.1-.6-.2s-.2-.4-.2-.6l-.2-1.1a1.93 1.93 0 0 0-.3-1c-.2-.4-.6-.6-1-.8-.2 0-.4-.1-.6-.2-1-.3-2.1-.4-3.1-.4H5.7c-.9 0-1.9.2-2.8.5-.3.1-.7.3-.9.5-.3.3-.4.8-.2 1.2.2.3.4.5.7.6.4.2.7.3 1.1.4 1.1.2 2.2.3 3.3.4l3.7-.1h.9c.4-.2.6-.6.5-1s-.5-.5-.8-.5H11h-.4l-.8.1H8 6.2h-.8L5 2h-.1-.1-.7v-.2h.6c0-.1.2-.1.2-.1h0 .4c1.1-.1 2.3-.2 3.4-.1h1.7c0 .1.4.1.4.1h.1 0l.8.2c.4 0 .9.1 1.1.5 0 .1 0 .3.1.4V3l.3 1.3h0v.2h-.1-.5-1.1c0 .1-2.1.2-2.1.2H8.3c-1.4 0-2.8 0-4.2-.2h-.5c.1 0 0 0-.1 0h-.3l-1-.2c-.4 0-.8 0-1.1.2s-.5.4-.7.7-.2.7-.3 1-.1.6-.1.9c0 .8.6 1.4 1.4 1.5l2.2.3c2.8.4 5.7.4 8.5.1h.7.2s.1 0 .2.1c0 0 0 .1.1.2v.2.7l-.5 4.2-.5 4.4v1.3c-.1 0-.3 1.2-.3 1.2-.1.6-.6 1-1.2 1.2-.6.1-1.2.2-1.8.2H7c-.7 0-1.6 0-2.1-.6-.5-.5-.5-1.2-.6-1.8L4 17.8l-.5-4.6-.3-3V10a.68.68 0 0 0-.7-.7c-.3 0-.7.3-.7.7l.2 2.2.5 4.5.4 3.9v.7c.2 1.3 1.3 2.1 2.5 2.3.7.1 1.5.1 2.3.2l2.9-.1c1.4-.3 2.5-1.2 2.6-2.7v-1.3c.1 0 .6-4.2.6-4.2l.5-4.6.2-2.1c0-.1 0-.2.1-.3s.2-.1.3-.2c.4 0 .8-.2 1.1-.5.5-.5.6-1.1.4-1.8h0zm-15.1.5zm0 .3h0zm0 0h0zm.1.1h0zM15 7.2c-.1.1-.4.2-.6.2-2.4.4-4.9.5-7.3.5-1.8 0-3.5-.3-5.2-.5-.2 0-.4 0-.5-.2-.2-.2-.1-.7 0-1 0-.3.2-.6.5-.7.5 0 1.1.2 1.5.2l1.7.2c2.5.2 5 .2 7.5-.1l1.4-.2c.4 0 .8-.2 1.1.2.2.3.2.7.2 1 0 .1 0 .3-.2.4h0z" fill="#0d0c22"/><path d="M30.1 13.9c-.1.3-.3.5-.6.7s-.6.4-.9.5l-1 .3h-1c-.3 0-.6-.2-.8-.3l.3-2.6c.2 0 .5-.2.9-.2.3 0 .7-.1 1.1-.2h1c.3 0 .5.1.8.3.1 0 .2.2.3.3 0 .1.1.2.1.3 0 .3 0 .6-.2.9h0zm-3.6-5.4l.6-.3c.2-.1.5-.1.7-.2h.7c.2 0 .4 0 .6.2.2.1.3.3.4.5 0 .2.1.5 0 .8 0 .2-.1.4-.3.6s-.4.3-.6.4-.5.2-.7.3c-.3 0-.5.1-.8.2h-.6-.4l.2-2.5h0zm4.9 3.8c-.1-.3-.3-.5-.5-.7s-.5-.4-.8-.5c.1-.1.3-.3.4-.5s.2-.5.3-.7c0-.3.1-.5.2-.8v-.7c-.1-.5-.3-.8-.6-1.1s-.6-.5-1-.6-.8-.1-1.3 0c-.5 0-.9.2-1.4.4V7v-.1c0-.1 0-.2-.2-.3a.76.76 0 0 1-.4-.2c-.2 0-.3 0-.5.1s-.2.2-.3.5l-.2 2.2-.2 2.3-.2 2.3-.2 2.2c0 .2 0 .3.2.5 0 .1.2.2.3.2h.4c.2 0 .3-.2.4-.4.3.2.7.3 1.1.3h1.2c.4 0 .8-.2 1.2-.3s.8-.3 1.1-.5.6-.5.8-.7c.2-.3.4-.6.4-.9v-1c0-.3-.1-.6-.2-.9h0zm11.4 6.2c0 .3-.1.5-.2.8l-.3.8c-.1.2-.2.4-.4.6a.76.76 0 0 1-.4.2c-.1 0-.2 0-.2-.2v-.5c0-.2 0-.4.2-.7 0-.3.2-.5.3-.7s.3-.5.4-.7c.2-.2.3-.4.5-.6v.4.7zm4-5.1c-.1-.1-.2-.2-.4-.2s-.3 0-.5.3c-.1.2-.2.4-.4.5l-.5.5-.5.4-.4.2v-.8-.9c0-.4 0-.9.2-1.3 0-.4.2-.9.3-1.3 0-.2 0-.4-.2-.5 0-.1-.2-.2-.4-.3h-.5c-.2 0-.3.2-.4.4l-.3.9-.4 1c-.2.3-.3.7-.5 1s-.4.6-.6.8-.5.4-.7.6c-.3.1-.6.2-.9.2-.1 0-.2-.1-.3-.3 0-.2-.1-.4-.1-.6v-.9-.9c.1 0 .3-.9.3-.9l.2-.7V10c0-.2-.2-.3-.4-.3h-.5c-.2 0-.3.2-.4.4-.1.3-.3.7-.4 1.1l-.3 1.2c0 .4-.1.9-.1 1.3h0c-.2.5-.3.9-.5 1.1-.2.3-.4.4-.7.4-.1 0-.2-.2-.2-.3v-.6-.9l.2-1 .2-1 .2-1c0-.3 0-.5-.2-.6s-.4-.2-.6-.2-.3.2-.4.3-.2.3-.2.5c0 .1 0 .3-.1.6l-.2 1.1-.4 1.2c-.1.4-.3.8-.5 1.2s-.3.6-.5.8-.4.3-.6.3c-.1 0-.2-.2-.2-.4v-.9c0-.4 0-.8.1-1.1l.2-1.2.2-1v-.6c.1-.2 0-.4 0-.5s-.2-.2-.4-.3h-.5c-.2 0-.3.2-.4.4l-.2.7-.2.9-.2.9v.7c-.1 0-.2.6-.2.6v.8.8c0 .3.1.5.2.7s.2.4.4.5.4.2.7.2h.8c.2 0 .4-.2.6-.3s.3-.3.5-.4l.4-.6c.1.3.3.5.5.7s.4.3.7.3c.2 0 .5 0 .7-.1a3.04 3.04 0 0 0 .7-.5c.1-.1.3-.3.4-.5 0 0 .1.2.2.2.2.3.5.4.8.5.4 0 .7.1 1 0 .3 0 .7-.2 1-.3l.9-.6c.3-.2.5-.5.7-.7v.5.5c-.4.3-.8.6-1.1 1s-.7.8-.9 1.2A3.79 3.79 0 0 0 40 19c-.2.5-.2.9-.2 1.3a1.69 1.69 0 0 0 .3 1c.2.3.5.5.9.6s.8.1 1.1 0 .6-.3.8-.6c.3-.3.5-.7.6-1.1.2-.4.3-.8.4-1.3 0-.4.1-.9.2-1.3v-1.2c.7-.3 1.2-.6 1.7-1.1a6.73 6.73 0 0 0 1.1-1.4c0-.1.1-.3 0-.4s0-.3-.2-.4h0zm14.8-.8c0-.2 0-.4.1-.6s.1-.4.2-.6.2-.4.3-.5c0-.1.2-.2.3-.3h.3c.1 0 .2.2.2.4v.7c0 .2-.2.5-.4.7s-.5.4-.9.4v-.4h0zm4.1.5h-.4c-.1 0-.2.1-.2.3 0 .3-.2.5-.3.8s-.3.5-.5.7-.4.4-.7.6-.5.3-.8.4c-.3 0-.5.1-.7 0-.2 0-.3-.2-.4-.3-.1-.2-.2-.4-.2-.6v-.7c.5 0 .8 0 1.2-.2s.6-.4.9-.8c.2-.3.4-.7.6-1.1.1-.4.2-.8.2-1.2s0-.7-.2-.9c-.1-.2-.3-.4-.5-.6-.2-.1-.4-.2-.7-.3-.3 0-.5 0-.8.1s-.6.3-.8.5c-.2.3-.4.5-.6.9-.2.3-.3.7-.4 1.1 0 .4-.2.7-.2 1.1v.9.1c-.1.3-.3.6-.4.8-.2.3-.3.5-.5.7s-.4.2-.6.2c-.1 0-.2-.2-.2-.4v-1V13c.2-.4.2-.9.2-1.3s0-.7-.2-1-.3-.6-.6-.8c-.2-.2-.5-.4-.8-.4s-.6 0-1 .1a1.85 1.85 0 0 0-.8.7l-.6.9c0-.3-.2-.5-.3-.7s-.3-.4-.5-.6-.4-.3-.6-.4c-.2 0-.5-.1-.7-.1s-.5 0-.7.1c-.2 0-.4.2-.6.4-.2.1-.3.3-.5.5l-.4.5v-.5c0-.2-.1-.3-.2-.4 0-.1-.1-.2-.2-.2h-.4-.3s-.2 0-.2.2l-.2.2v.3.3c0 .1 0 .3.1.5v.7c.1.3.1.7.1 1v1.4l-.2 1.9c0 .2 0 .3.2.4.1.1.3.2.5.2h.5c.2 0 .3-.2.3-.4 0-.4 0-.8.1-1.2l.3-1.2.3-1.2c.1-.4.3-.7.4-1 .2-.3.3-.5.5-.7s.3-.3.5-.3a.55.55 0 0 1 .5.3c.1.2.2.5.3.8v1 1.1l-.1.9v.6c0 .2 0 .3.1.4s.3.2.5.2h.5c.2 0 .2-.2.3-.4l.3-1.7a5.27 5.27 0 0 1 .5-1.5l.6-1.1c.2-.3.4-.4.7-.4s.2 0 .3.3.1.4.1.7v.7.7c-.1 0-.2.8-.2.8v.8.7c0 .3.1.5.2.7s.3.4.5.6.4.2.7.2c.5 0 .8-.1 1.2-.3.3-.2.6-.4.9-.8h0c.2.5.4.8.7.9s.6.3 1 .3.8 0 1.3-.2c.3-.1.6-.3.9-.5s.5-.4.7-.7l.6-.9c.2-.3.3-.8.5-1.2v-.3s-.2-.2-.3-.2h0zm6.4-1.3l-.2.8-.3.9c0 .3-.2.6-.4.8s-.3.4-.5.6-.4.2-.7.2c-.1 0-.2-.1-.3-.3s-.1-.4-.1-.6v-.8c0-.3.1-.6.2-.9s.2-.5.4-.8c.1-.2.3-.4.5-.5s.4-.2.6-.2a1.08 1.08 0 0 1 .7.3v.5zm4.2.9h-.4c-.1 0-.2.2-.3.4 0 .3-.1.5-.2.8s-.2.6-.4.8c-.2.3-.3.5-.6.7-.2.2-.4.3-.7.2-.2 0-.3-.1-.4-.3 0-.2-.1-.4-.1-.7v-.9l.2-1 .3-1 .2-.8v-.5c0-.1-.2-.2-.4-.3H73c-.2 0-.3.1-.3.3-.5-.4-.9-.6-1.3-.6s-.8 0-1.2.3-.7.5-1 1c-.3.4-.5.9-.7 1.4s-.3 1-.3 1.5 0 .9.1 1.4c.1.4.3.8.6 1 .3.3.7.4 1.1.4s.4 0 .6-.1c.2 0 .4-.2.5-.3a.78.78 0 0 0 .4-.4l.3-.3c0 .3.2.5.3.7s.3.4.4.5.3.2.5.3.4 0 .5 0c.4 0 .7-.1 1-.4l.9-.9c.2-.4.5-.7.6-1.2.1-.3.3-.7.3-1.1v-.4c0-.1-.2-.2-.3-.3h0zm21.1 6.5c0 .3-.2.5-.3.7a.55.55 0 0 1-.5.3c-.1 0-.2 0-.3-.2s-.1-.3-.2-.6 0-.5 0-.8v-.9l.1-.8v-.6c.3 0 .6.2.7.4.2.2.3.4.4.7 0 .3.1.6.2.9v.9h0zm-4.2 0c0 .3-.2.5-.3.7a.55.55 0 0 1-.5.3c-.1 0-.2 0-.3-.2s-.1-.3-.2-.6 0-.5 0-.8v-.9l.1-.8v-.6c.3 0 .6.2.7.4.2.2.3.4.4.7 0 .3.1.6.2.9v.9h0zm-4.4-6.7v.5c0 .1 0 .2-.1.3 0 0-.2-.2-.3-.4s-.2-.4-.3-.7v-.7c0-.2.2-.4.4-.6h.2l.2.4c.1.2 0 .3 0 .5v.6h0zm-1 2.4c-.1.1-.3.2-.4.3-.1 0-.3.2-.5.2h-.4c-.4 0-.6-.2-.8-.5-.2-.2-.3-.5-.4-.8v-1c0-.3.2-.7.3-1s.3-.6.5-.8.4-.4.7-.4c0 .4-.1.8 0 1.2 0 .4.1.8.3 1.2.1.2.2.4.4.6s.3.4.6.5c0 .1-.2.3-.3.4h0zm13-2.3c0-.2 0-.4.1-.6s.1-.4.2-.6.2-.4.3-.5c0-.1.2-.2.3-.3h.3c.1 0 .2.2.2.4v.7c0 .2-.2.5-.4.7s-.5.4-.9.5v-.4h0zm4.7 0c0-.2 0-.4.1-.6s.1-.4.2-.6.2-.4.3-.5c0-.1.2-.2.3-.3h.3c.1 0 .2.2.2.4v.7c0 .2-.2.5-.4.7s-.5.4-.9.5v-.4h0zm4.4.7s-.2-.2-.3-.2h-.4c-.1 0-.2.1-.2.3 0 .3-.2.5-.3.8s-.3.5-.5.7-.4.4-.7.6-.5.3-.8.4c-.3 0-.5.1-.7 0-.2 0-.3-.2-.4-.3-.1-.2-.2-.4-.2-.6v-.7c.5 0 .8 0 1.2-.2s.6-.5.9-.8c.2-.3.4-.7.6-1.1.1-.4.2-.8.2-1.2s0-.7-.2-.9c-.1-.2-.3-.4-.5-.6-.2-.1-.4-.2-.7-.3-.3 0-.5 0-.8.1s-.6.3-.8.5c-.2.3-.4.5-.6.9-.2.3-.3.7-.4 1.1 0 .4-.2.7-.2 1.1v1s0 .1-.1.2c-.1.3-.3.5-.5.7s-.4.4-.7.6-.5.3-.8.4c-.3 0-.5.1-.7 0-.2 0-.3-.2-.4-.3-.1-.2-.2-.4-.2-.6v-.7c.5 0 .8 0 1.2-.2s.6-.5.9-.8c.2-.3.4-.7.6-1.1.1-.4.2-.8.2-1.2s0-.7-.2-.9c-.1-.2-.3-.4-.5-.6-.2-.1-.4-.2-.7-.3-.3 0-.5 0-.8.1s-.6.3-.8.5c-.2.3-.4.5-.6.9-.2.3-.3.7-.4 1.1 0 .4-.2.7-.2 1.1v.6l-.3.2-.9.6c-.3.2-.6.3-.9.4s-.7.2-1 .2L97 7v-.4c0-.1-.2-.2-.4-.3h-.5c-.2 0-.3.2-.4.4l-.2 1.2-.2 1.7-.2 1.9-.2 1.8h0l-.2.2-.9.6c-.3.2-.6.3-.9.4s-.7.2-1 .2l.7-7.8v-.4c0-.1-.2-.2-.4-.3h-.5c-.2 0-.3.2-.4.4l-.2 1.2-.2 1.7-.2 1.9-.2 1.8h0a.76.76 0 0 0-.4.2h-.5v-.5l.1-.5v-.6-.5c0-.3-.1-.7-.2-1s-.3-.6-.4-.8c-.2-.2-.4-.3-.7-.4h-1c-.5 0-1 0-1.4.2s-.8.4-1.1.7a4.44 4.44 0 0 0-.8 1.1c-.2.4-.3.9-.4 1.3v.6c-.1.3-.3.5-.4.7-.2.3-.4.5-.7.6-.2.2-.4.3-.7.4-.2 0-.4.1-.6.2h-.6a.55.55 0 0 1-.5-.3c-.1-.1-.2-.3-.3-.5 0-.3-.1-.6-.1-.8v-1c0-.3 0-.6.2-1 0-.3.2-.6.3-.8s.3-.4.5-.5c.1 0 .2 0 .2.2v.4.4.4c0 .2.1.4.2.5s.2.2.4.2c.1 0 .3 0 .4-.1.2 0 .3-.2.3-.4l.2-1.5v-.5c0-.2-.3-.3-.4-.3-.2-.3-.5-.5-.9-.5a1.92 1.92 0 0 0-1.2.4c-.3.2-.5.4-.7.7s-.4.7-.5 1.1l-.3 1.2c-.1.4 0 .9 0 1.3s0 .8.2 1.2c.1.4.3.7.5.9s.4.4.6.5c.2 0 .5.2.7.2h.7c.2 0 .5-.1.7-.2.3-.1.6-.2.9-.4s.6-.3.8-.6c.1-.1.3-.2.4-.4 0 .2.1.3.2.4.2.4.5.6.9.9.4.2.8.3 1.3.3s1.1-.2 1.6-.4.9-.7 1.2-1.2c.5 0 .9 0 1.4-.2v.1.8c0 .3 0 .6-.1 1v1.2 1.3c0 .4.1.8.3 1.2.1.4.3.6.5.9s.5.4.9.4.7 0 1-.2.5-.5.7-.8c.2-.4.3-.8.4-1.2 0-.4.1-.9 0-1.3a3.08 3.08 0 0 0-.3-1.3c-.1-.4-.3-.7-.6-1 .1 0 .3-.1.5-.2l.6-.4h.2c0-.1 0 .5 0 .5v1 1.2V19c0 .4.1.8.3 1.2.1.4.3.6.5.9s.5.4.9.4.7 0 1-.2.5-.5.7-.8c.2-.4.3-.8.4-1.2 0-.4.1-.9 0-1.3a3.08 3.08 0 0 0-.3-1.3c-.1-.4-.3-.7-.6-1 .1 0 .3-.1.5-.2l.6-.4.3-.2a1.69 1.69 0 0 0 .3 1c.2.3.4.6.7.8a1.69 1.69 0 0 0 1 .3c.4 0 .8 0 1.3-.2.3-.1.6-.3.9-.5s.5-.4.7-.7v.3c.3.3.5.6.8.8a1.69 1.69 0 0 0 1 .3c.4 0 .8 0 1.3-.2.3-.1.6-.3.9-.5s.5-.4.7-.7l.6-.9c.2-.4.3-.8.5-1.2v-.3h0z" fill="#0d0c23" fill-rule="evenodd"/></svg>